<?xml version="1.0" encoding="utf-8"?>
<!-- Generator: Adobe Illustrator 25.3.1, SVG Export Plug-In . SVG Version: 6.00 Build 0)  -->
<svg version="1.1" id="Layer_1" xmlns="http://www.w3.org/2000/svg" xmlns:xlink="http://www.w3.org/1999/xlink" x="0px" y="0px"
	 viewBox="0 0 16 19" style="enable-background:new 0 0 16 19;" xml:space="preserve">
<style type="text/css">
	.st0{fill:#FFFFFF;}
</style>
<g id="FPO">
</g>
<g id="Global_Nav_Small_Icons">
</g>
<g id="Global_Nav_Small_1_">
</g>
<g id="Bag">
</g>
<g id="Global_Nav_Large_Icons">
	<path id="Apple" class="st0" d="M16,13.9c-0.1,0.3-0.2,0.6-0.3,0.9c-0.3,0.7-0.6,1.3-1,1.8c-0.5,0.8-1,1.3-1.3,1.6
		c-0.5,0.5-1.1,0.7-1.7,0.7c-0.4,0-1-0.1-1.6-0.4c-0.6-0.2-1.2-0.4-1.7-0.4c-0.5,0-1.1,0.1-1.7,0.4C6,18.9,5.6,19,5.2,19
		c-0.6,0-1.2-0.2-1.7-0.8c-0.4-0.3-0.8-0.9-1.4-1.6c-0.6-0.8-1.1-1.8-1.5-2.9C0.2,12.5,0,11.4,0,10.2C0,9,0.3,7.9,0.8,7
		c0.4-0.7,1-1.3,1.7-1.8c0.7-0.4,1.5-0.6,2.3-0.7C5.4,4.5,6,4.7,6.7,5c0.7,0.3,1.2,0.4,1.4,0.4c0.2,0,0.7-0.2,1.6-0.5
		c0.9-0.3,1.6-0.4,2.2-0.4c1.6,0.1,2.8,0.8,3.6,1.9c-1.4,0.9-2.1,2.1-2.1,3.6c0,1.2,0.5,2.2,1.3,3C15.1,13.4,15.5,13.7,16,13.9z
		 M12,0c0,0.1,0,0.3,0,0.4c0,0.9-0.3,1.8-1,2.7C10.1,4,9.1,4.6,8,4.5c0-0.1,0-0.2,0-0.4c0-0.9,0.4-1.9,1.1-2.7
		c0.4-0.4,0.8-0.7,1.3-1C11,0.2,11.5,0,12,0z"/>
</g>
<g id="Global_Nav_Large_1_">
</g>
<g id="Guides">
</g>
<g id="NOTES">
</g>
</svg>
